# xmcd
#
# Track frame offsets: 
#        150
#        19535
#        44685
#        61841
#        86750
#        102494
#        129689
#        180194
#
# Disc length: 3225 seconds
#
# Revision: 0
# Processed by: cddbd v1.5.2PL0 Copyright (c) Steve Scherf et al.
# Submitted via: ExactAudioCopy v0.99pb3
#
DISCID=630c9708
DTITLE=Why Are We Building Such a Big Ship? - Why are we building such
DTITLE=a big ship?
DYEAR=2007
DGENRE=Ambient
TTITLE0=Intro
TTITLE1=Don't Go
TTITLE2=Thin World Waltz
TTITLE3=Dance...
TTITLE4=to the Vultures
TTITLE5=Gone is gone
TTITLE6=Dark before the sunrise
TTITLE7=Firefly
EXTD=
EXTT0=
EXTT1=
EXTT2=
EXTT3=
EXTT4=
EXTT5=
EXTT6=
EXTT7=
PLAYORDER=
